<svg id="Capa_1" enable-background="new 0 0 512 512" height="120" viewBox="0 0 512 512" width="120" xmlns="http://www.w3.org/2000/svg"><g><g><path d="m438.143 256c0 50.298-20.38 95.834-53.345 128.798s-78.5 53.345-128.798 53.345-95.834-20.38-128.798-53.345-53.345-78.5-53.345-128.798 20.38-95.834 53.345-128.798 78.5-53.345 128.798-53.345 95.834 20.38 128.798 53.345 53.345 78.5 53.345 128.798z" fill="#ececec"/><path d="m113.72 256-49.746-25.657-56.474 25.657c0 68.62 27.82 130.74 72.78 175.72l61.985-16.834 13.125-58.276c-25.75-25.75-41.67-61.32-41.67-100.61z" fill="#736acb"/><path d="m256 7.5c-68.62 0-130.74 27.82-175.72 72.78l14.451 64.082 60.659 11.028c25.75-25.75 61.32-41.67 100.61-41.67l33.061-49.746z" fill="#5bd6fd"/><path d="m431.72 80.28-54.581 7.461-20.529 67.649c25.75 25.75 41.67 61.32 41.67 100.61l53.11 27.469 53.11-27.469c0-68.62-27.82-130.74-72.78-175.72z" fill="#fbc072"/><path d="m413.488 365.954-56.878-9.344c-25.75 25.75-61.32 41.67-100.61 41.67l-31.948 45.965 31.948 60.255c68.62 0 130.74-27.82 175.72-72.78z" fill="#ff71a7"/><path d="m185.706 356.294c-25.669-25.669-41.539-61.127-41.539-100.293s15.87-74.625 41.539-100.294c22.348-22.348 52.118-37.263 85.293-40.75-4.93-.518-9.933-.789-15-.789-39.166 0-74.625 15.87-100.293 41.539-25.669 25.669-41.539 61.127-41.539 100.294 0 39.166 15.87 74.625 41.539 100.293 25.669 25.669 61.127 41.539 100.293 41.539 5.067 0 10.07-.271 15-.789-33.175-3.487-62.944-18.402-85.293-40.75z" fill="#dededc"/><path d="m256 398.28v106.22c-68.62 0-130.74-27.82-175.72-72.78l75.11-75.11c25.75 25.75 61.32 41.67 100.61 41.67z" fill="#918bd7"/><path d="m504.5 256c0 68.62-27.82 130.74-72.78 175.72l-75.11-75.11c25.75-25.75 41.67-61.32 41.67-100.61z" fill="#ff97c0"/><path d="m431.72 80.28-75.11 75.11c-25.75-25.75-61.32-41.67-100.61-41.67v-106.22c68.62 0 130.74 27.82 175.72 72.78z" fill="#f9f097"/><path d="m155.39 155.39c-25.75 25.75-41.67 61.32-41.67 100.61h-106.22c0-68.62 27.82-130.74 72.78-175.72z" fill="#a4e6ff"/></g><g><path d="m437.024 74.976s-.001-.001-.001-.001c-48.371-48.348-112.659-74.975-181.023-74.975-28.049 0-55.628 4.512-81.97 13.411-3.924 1.326-6.031 5.582-4.705 9.506s5.581 6.031 9.506 4.705c22.442-7.581 45.842-11.779 69.669-12.507v91.289c-33.958 1.666-66.771 14.748-92.98 38.51l-64.55-64.551c18.17-17.08 38.738-31.164 61.231-41.916 3.737-1.786 5.319-6.264 3.532-10.001-1.786-3.737-6.263-5.32-10.001-3.532-26.286 12.564-50.09 29.408-70.754 50.062 0 0-.001.001-.001.001s-.001.001-.001.001c-48.349 48.37-74.976 112.658-74.976 181.022s26.627 132.652 74.976 181.022c0 0 .001.001.001.001s.001.001.001.001c48.37 48.349 112.658 74.976 181.022 74.976 29.872 0 59.156-5.111 87.039-15.192 3.896-1.408 5.912-5.708 4.503-9.603-1.409-3.896-5.708-5.912-9.603-4.503-23.906 8.643-48.912 13.404-74.439 14.184v-91.289c34.856-1.71 67.435-15.35 92.98-38.51l64.55 64.55c-16.917 15.897-35.959 29.229-56.701 39.685-3.699 1.865-5.186 6.375-3.321 10.073 1.865 3.699 6.375 5.186 10.073 3.321 24.401-12.301 46.586-28.346 65.941-47.691 0 0 .001-.001.001-.001s.001-.001.001-.001c48.349-48.371 74.976-112.66 74.976-181.023s-26.627-132.652-74.975-181.022c-.001-.001-.001-.001-.001-.002zm-85.717 276.331c-25.455 25.454-59.302 39.473-95.307 39.473s-69.852-14.019-95.307-39.473-39.473-59.302-39.473-95.307 14.019-69.852 39.473-95.307 59.302-39.473 95.307-39.473 69.852 14.019 95.307 39.473c25.455 25.455 39.474 59.302 39.474 95.307s-14.019 69.852-39.474 95.307zm5.173-206.394c-25.734-23.332-58.354-36.811-92.98-38.51v-91.29c59.055 1.794 114.48 24.75 157.532 65.248zm-276.118-53.945 64.551 64.552c-22.885 25.242-36.78 57.711-38.51 92.98h-91.29c1.795-59.055 24.752-114.48 65.249-157.532zm26.041 172.532c1.649 33.612 14.523 66.524 38.51 92.98l-31.631 31.631-32.92 32.921c-40.497-43.052-63.454-98.477-65.248-157.532zm49.117 103.587c25.012 22.677 57.351 36.762 92.98 38.51v91.29c-59.055-1.794-114.48-24.75-157.532-65.248zm276.119 53.945-64.552-64.552c23.24-25.632 36.81-58.253 38.51-92.98h91.289c-1.794 59.055-24.75 114.48-65.247 157.532zm-26.042-172.532c-1.695-34.616-15.193-67.263-38.51-92.98l64.552-64.552c40.497 43.052 63.454 98.478 65.248 157.532z"/><path d="m184.202 214.521c-12.993 0-23.564 10.57-23.564 23.563 0 4.142 3.358 7.5 7.5 7.5s7.5-3.358 7.5-7.5c0-4.722 3.842-8.563 8.564-8.563s8.563 3.842 8.563 8.563c0 4.142 3.358 7.5 7.5 7.5s7.5-3.358 7.5-7.5c0-12.993-10.57-23.563-23.563-23.563z"/><path d="m327.794 214.521c-12.993 0-23.563 10.57-23.563 23.563 0 4.142 3.358 7.5 7.5 7.5s7.5-3.358 7.5-7.5c0-4.722 3.842-8.563 8.563-8.563 4.722 0 8.564 3.842 8.564 8.563 0 4.142 3.358 7.5 7.5 7.5s7.5-3.358 7.5-7.5c0-12.993-10.571-23.563-23.564-23.563z"/><path d="m277.965 251.206c-3.122-2.722-7.86-2.397-10.582.726-2.875 3.298-7.025 5.19-11.386 5.19s-8.511-1.892-11.385-5.19c-2.723-3.123-7.459-3.447-10.582-.727-3.123 2.722-3.448 7.459-.727 10.582 5.724 6.568 13.996 10.335 22.694 10.335 8.697 0 16.969-3.767 22.693-10.335 2.723-3.122 2.398-7.86-.725-10.581z"/></g></g></svg>